<svg xmlns="http://www.w3.org/2000/svg" xmlns:xlink="http://www.w3.org/1999/xlink" width="128" zoomAndPan="magnify" viewBox="0 0 96 95.999999" height="128" preserveAspectRatio="xMidYMid meet" version="1.0"><defs><g/><clipPath id="b54691bc83"><path d="M 48 0 C 74.507812 0 96 21.492188 96 48 C 96 74.507812 74.507812 96 48 96 C 21.492188 96 0 74.507812 0 48 C 0 21.492188 21.492188 0 48 0 Z M 48 0 " clip-rule="nonzero"/></clipPath><clipPath id="c64d989d17"><path d="M 10.179688 33.503906 L 24.351562 33.503906 L 24.351562 43.703125 L 10.179688 43.703125 Z M 10.179688 33.503906 " clip-rule="nonzero"/></clipPath><clipPath id="f07534f6cd"><path d="M 12.957031 47.078125 L 35.78125 47.078125 L 35.78125 67.019531 L 12.957031 67.019531 Z M 12.957031 47.078125 " clip-rule="nonzero"/></clipPath><clipPath id="cebdfb27e9"><path d="M 24.351562 47.078125 L 35.746094 67.019531 L 12.957031 67.019531 Z M 24.351562 47.078125 " clip-rule="nonzero"/></clipPath><clipPath id="38f6b0317e"><path d="M 44.015625 75.960938 L 54.457031 75.960938 L 54.457031 86.398438 L 44.015625 86.398438 Z M 44.015625 75.960938 " clip-rule="nonzero"/></clipPath><clipPath id="547893fa1c"><path d="M 49.238281 75.960938 C 46.355469 75.960938 44.015625 78.296875 44.015625 81.179688 C 44.015625 84.0625 46.355469 86.398438 49.238281 86.398438 C 52.121094 86.398438 54.457031 84.0625 54.457031 81.179688 C 54.457031 78.296875 52.121094 75.960938 49.238281 75.960938 Z M 49.238281 75.960938 " clip-rule="nonzero"/></clipPath><clipPath id="f1687d56a2"><path d="M 60.785156 47.078125 L 74.628906 47.078125 L 74.628906 60.65625 L 60.785156 60.65625 Z M 60.785156 47.078125 " clip-rule="nonzero"/></clipPath><clipPath id="ee62b43c47"><path d="M 72.519531 29.824219 L 86.398438 29.824219 L 86.398438 43.703125 L 72.519531 43.703125 Z M 72.519531 29.824219 " clip-rule="nonzero"/></clipPath><clipPath id="e421ecabca"><path d="M 79.460938 29.824219 C 75.628906 29.824219 72.519531 32.929688 72.519531 36.761719 C 72.519531 40.59375 75.628906 43.703125 79.460938 43.703125 C 83.292969 43.703125 86.398438 40.59375 86.398438 36.761719 C 86.398438 32.929688 83.292969 29.824219 79.460938 29.824219 Z M 79.460938 29.824219 " clip-rule="nonzero"/></clipPath><clipPath id="79fd060123"><path d="M 65.351562 65.382812 L 79.480469 65.382812 L 79.480469 77.726562 L 65.351562 77.726562 Z M 65.351562 65.382812 " clip-rule="nonzero"/></clipPath><clipPath id="c50d602d0e"><path d="M 72.40625 65.382812 L 79.460938 77.726562 L 65.351562 77.726562 Z M 72.40625 65.382812 " clip-rule="nonzero"/></clipPath><clipPath id="cdd91c71b5"><path d="M 27.050781 13.085938 L 39.777344 13.085938 L 39.777344 21.269531 L 27.050781 21.269531 Z M 27.050781 13.085938 " clip-rule="nonzero"/></clipPath><clipPath id="1686806097"><path d="M 49.238281 9.277344 L 62.960938 9.277344 L 62.960938 21.269531 L 49.238281 21.269531 Z M 49.238281 9.277344 " clip-rule="nonzero"/></clipPath><clipPath id="7b837e34a1"><path d="M 56.089844 9.277344 L 62.941406 21.269531 L 49.238281 21.269531 Z M 56.089844 9.277344 " clip-rule="nonzero"/></clipPath><clipPath id="dff1793443"><path d="M 17.894531 71.554688 L 29.050781 71.554688 L 29.050781 77.726562 L 17.894531 77.726562 Z M 17.894531 71.554688 " clip-rule="nonzero"/></clipPath></defs><g clip-path="url(#b54691bc83)"><rect x="-9.6" width="115.2" fill="#000000" y="-9.6" height="115.199999" fill-opacity="1"/><path stroke-linecap="butt" transform="matrix(0.75, 0, 0, 0.75, 0.0000005, 0.000002)" fill="none" stroke-linejoin="miter" d="M 63.999999 -0.00000266667 C 99.343748 -0.00000266667 127.999998 28.656247 127.999998 63.999997 C 127.999998 99.343746 99.343748 127.999996 63.999999 127.999996 C 28.656249 127.999996 -0.000000666667 99.343746 -0.000000666667 63.999997 C -0.000000666667 28.656247 28.656249 -0.00000266667 63.999999 -0.00000266667 Z M 63.999999 -0.00000266667 " stroke="#ffffff" stroke-width="10" stroke-opacity="1" stroke-miterlimit="4"/></g><g clip-path="url(#c64d989d17)"><path fill="#d9d9d9" d="M 10.179688 33.503906 L 24.363281 33.503906 L 24.363281 43.703125 L 10.179688 43.703125 Z M 10.179688 33.503906 " fill-opacity="1" fill-rule="nonzero"/></g><g clip-path="url(#f07534f6cd)"><g clip-path="url(#cebdfb27e9)"><path fill="#d9d9d9" d="M 12.957031 47.078125 L 35.78125 47.078125 L 35.78125 67.019531 L 12.957031 67.019531 Z M 12.957031 47.078125 " fill-opacity="1" fill-rule="nonzero"/></g></g><g clip-path="url(#38f6b0317e)"><g clip-path="url(#547893fa1c)"><path fill="#d9d9d9" d="M 44.015625 75.960938 L 54.457031 75.960938 L 54.457031 86.398438 L 44.015625 86.398438 Z M 44.015625 75.960938 " fill-opacity="1" fill-rule="nonzero"/></g></g><path stroke-linecap="butt" transform="matrix(0.522639, 0, 0, 0.522639, 27.48926, 7.235175)" fill="none" stroke-linejoin="miter" d="M 3.966864 50.754963 L 3.966864 36.56168 L 70.852428 36.56168 L 70.852428 50.754963 L 45.926363 50.754963 L 45.926363 117.999282 L 28.892929 117.999282 L 28.892929 50.754963 Z M 3.966864 50.754963 " stroke="#ffffff" stroke-width="8.398275" stroke-opacity="1" stroke-miterlimit="4"/><g fill="#000000" fill-opacity="1"><g transform="translate(27.48926, 68.906625)"><g><path d="M 2.078125 -35.140625 L 2.078125 -42.5625 L 37.03125 -42.5625 L 37.03125 -35.140625 L 24 -35.140625 L 24 0 L 15.109375 0 L 15.109375 -35.140625 Z M 2.078125 -35.140625 "/></g></g></g><g clip-path="url(#f1687d56a2)"><path fill="#d9d9d9" d="M 60.785156 47.078125 L 74.628906 47.078125 L 74.628906 60.65625 L 60.785156 60.65625 Z M 60.785156 47.078125 " fill-opacity="1" fill-rule="nonzero"/></g><g clip-path="url(#ee62b43c47)"><g clip-path="url(#e421ecabca)"><path fill="#d9d9d9" d="M 72.519531 29.824219 L 86.398438 29.824219 L 86.398438 43.703125 L 72.519531 43.703125 Z M 72.519531 29.824219 " fill-opacity="1" fill-rule="nonzero"/></g></g><g clip-path="url(#79fd060123)"><g clip-path="url(#c50d602d0e)"><path fill="#d9d9d9" d="M 65.351562 65.382812 L 79.480469 65.382812 L 79.480469 77.726562 L 65.351562 77.726562 Z M 65.351562 65.382812 " fill-opacity="1" fill-rule="nonzero"/></g></g><g clip-path="url(#cdd91c71b5)"><path fill="#d9d9d9" d="M 27.050781 13.085938 L 39.769531 13.085938 L 39.769531 21.269531 L 27.050781 21.269531 Z M 27.050781 13.085938 " fill-opacity="1" fill-rule="nonzero"/></g><g clip-path="url(#1686806097)"><g clip-path="url(#7b837e34a1)"><path fill="#d9d9d9" d="M 49.238281 9.277344 L 62.960938 9.277344 L 62.960938 21.269531 L 49.238281 21.269531 Z M 49.238281 9.277344 " fill-opacity="1" fill-rule="nonzero"/></g></g><g clip-path="url(#dff1793443)"><path fill="#d9d9d9" d="M 17.894531 71.554688 L 29.054688 71.554688 L 29.054688 77.726562 L 17.894531 77.726562 Z M 17.894531 71.554688 " fill-opacity="1" fill-rule="nonzero"/></g></svg>