<svg xmlns="http://www.w3.org/2000/svg" xmlns:xlink="http://www.w3.org/1999/xlink" width="128" zoomAndPan="magnify" viewBox="0 0 96 95.999999" height="128" preserveAspectRatio="xMidYMid meet" version="1.0"><defs><g/><clipPath id="ba77277312"><path d="M 23.25 0 L 72.75 0 C 85.589844 0 96 10.410156 96 23.25 L 96 72.75 C 96 85.589844 85.589844 96 72.75 96 L 23.25 96 C 10.410156 96 0 85.589844 0 72.75 L 0 23.25 C 0 10.410156 10.410156 0 23.25 0 Z M 23.25 0 " clip-rule="nonzero"/></clipPath><clipPath id="58e1a0f4cb"><path d="M 20.113281 40.050781 L 36.621094 40.050781 L 36.621094 50.789062 L 20.113281 50.789062 Z M 20.113281 40.050781 " clip-rule="nonzero"/></clipPath><clipPath id="43cfdb1a50"><path d="M 7.398438 24.789062 L 20.132812 24.789062 L 20.132812 35.914062 L 7.398438 35.914062 Z M 7.398438 24.789062 " clip-rule="nonzero"/></clipPath><clipPath id="5b1ddfc4da"><path d="M 13.757812 24.789062 L 20.113281 35.914062 L 7.398438 35.914062 Z M 13.757812 24.789062 " clip-rule="nonzero"/></clipPath><clipPath id="affa541173"><path d="M 10.640625 59.65625 L 34.988281 59.65625 L 34.988281 84.003906 L 10.640625 84.003906 Z M 10.640625 59.65625 " clip-rule="nonzero"/></clipPath><clipPath id="47c94890d9"><path d="M 22.816406 59.65625 C 16.089844 59.65625 10.640625 65.105469 10.640625 71.828125 C 10.640625 78.550781 16.089844 84.003906 22.816406 84.003906 C 29.539062 84.003906 34.988281 78.550781 34.988281 71.828125 C 34.988281 65.105469 29.539062 59.65625 22.816406 59.65625 Z M 22.816406 59.65625 " clip-rule="nonzero"/></clipPath><clipPath id="44b9848ae6"><path d="M 64.269531 63.085938 L 82.101562 63.085938 L 82.101562 80.570312 L 64.269531 80.570312 Z M 64.269531 63.085938 " clip-rule="nonzero"/></clipPath><clipPath id="f09062a666"><path d="M 77.253906 22.425781 L 91.058594 22.425781 L 91.058594 36.234375 L 77.253906 36.234375 Z M 77.253906 22.425781 " clip-rule="nonzero"/></clipPath><clipPath id="eec669f704"><path d="M 84.15625 22.425781 C 80.34375 22.425781 77.253906 25.515625 77.253906 29.328125 C 77.253906 33.140625 80.34375 36.234375 84.15625 36.234375 C 87.96875 36.234375 91.058594 33.140625 91.058594 29.328125 C 91.058594 25.515625 87.96875 22.425781 84.15625 22.425781 Z M 84.15625 22.425781 " clip-rule="nonzero"/></clipPath><clipPath id="0abda73471"><path d="M 63.929688 40.050781 L 82.125 40.050781 L 82.125 55.949219 L 63.929688 55.949219 Z M 63.929688 40.050781 " clip-rule="nonzero"/></clipPath><clipPath id="f3d22ddf2f"><path d="M 73.015625 40.050781 L 82.101562 55.949219 L 63.929688 55.949219 Z M 73.015625 40.050781 " clip-rule="nonzero"/></clipPath><clipPath id="408f26e389"><path d="M 22.25 5.625 L 36.621094 5.625 L 36.621094 13.574219 L 22.25 13.574219 Z M 22.25 5.625 " clip-rule="nonzero"/></clipPath><clipPath id="da0ff31674"><path d="M 59.390625 5.625 L 68.488281 5.625 L 68.488281 13.574219 L 59.390625 13.574219 Z M 59.390625 5.625 " clip-rule="nonzero"/></clipPath><clipPath id="09d4cd6064"><path d="M 63.929688 5.625 L 68.472656 13.574219 L 59.390625 13.574219 Z M 63.929688 5.625 " clip-rule="nonzero"/></clipPath></defs><g clip-path="url(#ba77277312)"><rect x="-9.6" width="115.2" fill="#000000" y="-9.6" height="115.199999" fill-opacity="1"/><path stroke-linecap="butt" transform="matrix(0.75, 0, 0, 0.75, 0.0000005, 0.000002)" fill="none" stroke-linejoin="miter" d="M 30.999999 -0.00000266667 L 96.999998 -0.00000266667 C 114.11979 -0.00000266667 127.999998 13.880206 127.999998 30.999997 L 127.999998 96.999996 C 127.999998 114.119788 114.11979 127.999996 96.999998 127.999996 L 30.999999 127.999996 C 13.880208 127.999996 -0.000000666667 114.119788 -0.000000666667 96.999996 L -0.000000666667 30.999997 C -0.000000666667 13.880206 13.880208 -0.00000266667 30.999999 -0.00000266667 Z M 30.999999 -0.00000266667 " stroke="#ffffff" stroke-width="10" stroke-opacity="1" stroke-miterlimit="4"/></g><g clip-path="url(#58e1a0f4cb)"><path fill="#d9d9d9" d="M 20.113281 40.050781 L 36.640625 40.050781 L 36.640625 50.789062 L 20.113281 50.789062 Z M 20.113281 40.050781 " fill-opacity="1" fill-rule="nonzero"/></g><g clip-path="url(#43cfdb1a50)"><g clip-path="url(#5b1ddfc4da)"><path fill="#d9d9d9" d="M 7.398438 24.789062 L 20.132812 24.789062 L 20.132812 35.914062 L 7.398438 35.914062 Z M 7.398438 24.789062 " fill-opacity="1" fill-rule="nonzero"/></g></g><g clip-path="url(#affa541173)"><g clip-path="url(#47c94890d9)"><path fill="#d9d9d9" d="M 10.640625 59.65625 L 34.988281 59.65625 L 34.988281 84.003906 L 10.640625 84.003906 Z M 10.640625 59.65625 " fill-opacity="1" fill-rule="nonzero"/></g></g><path stroke-linecap="butt" transform="matrix(0.673094, 0, 0, 0.673094, 22.814551, -4.499986)" fill="none" stroke-linejoin="miter" d="M 3.966495 50.750917 L 3.966495 36.56735 L 70.856754 36.56735 L 70.856754 50.750917 L 45.925247 50.750917 L 45.925247 118.000989 L 28.892199 118.000989 L 28.892199 50.750917 Z M 3.966495 50.750917 " stroke="#ffffff" stroke-width="8.398275" stroke-opacity="1" stroke-miterlimit="4"/><g fill="#000000" fill-opacity="1"><g transform="translate(22.814551, 74.925116)"><g><path d="M 2.671875 -45.25 L 2.671875 -54.8125 L 47.6875 -54.8125 L 47.6875 -45.25 L 30.90625 -45.25 L 30.90625 0 L 19.453125 0 L 19.453125 -45.25 Z M 2.671875 -45.25 "/></g></g></g><g clip-path="url(#44b9848ae6)"><path fill="#d9d9d9" d="M 64.269531 63.085938 L 82.097656 63.085938 L 82.097656 80.570312 L 64.269531 80.570312 Z M 64.269531 63.085938 " fill-opacity="1" fill-rule="nonzero"/></g><g clip-path="url(#f09062a666)"><g clip-path="url(#eec669f704)"><path fill="#d9d9d9" d="M 77.253906 22.425781 L 91.058594 22.425781 L 91.058594 36.234375 L 77.253906 36.234375 Z M 77.253906 22.425781 " fill-opacity="1" fill-rule="nonzero"/></g></g><g clip-path="url(#0abda73471)"><g clip-path="url(#f3d22ddf2f)"><path fill="#d9d9d9" d="M 63.929688 40.050781 L 82.125 40.050781 L 82.125 55.949219 L 63.929688 55.949219 Z M 63.929688 40.050781 " fill-opacity="1" fill-rule="nonzero"/></g></g><g clip-path="url(#408f26e389)"><path fill="#d9d9d9" d="M 22.25 5.625 L 36.625 5.625 L 36.625 13.574219 L 22.25 13.574219 Z M 22.25 5.625 " fill-opacity="1" fill-rule="nonzero"/></g><g clip-path="url(#da0ff31674)"><g clip-path="url(#09d4cd6064)"><path fill="#d9d9d9" d="M 59.390625 5.625 L 68.488281 5.625 L 68.488281 13.574219 L 59.390625 13.574219 Z M 59.390625 5.625 " fill-opacity="1" fill-rule="nonzero"/></g></g></svg>